{"title":"The.Canal(2014)720p.WEB-DL.H264.AAC.Raven","uid":11198672,"size":847123718,"categoryP":"video","categoryS":"hd___movies","magnet":"?xt=urn:btih:346e2e219c3ed7292803a11284e670e8090bbbb9&amp;dn=The.Canal%282014%29720p.WEB-DL.H264.AAC.Raven&amp;tr=udp%3A%2F%2Ftracker.openbittorrent.com%3A80&amp;tr=udp%3A%2F%2Fopen.demonii.com%3A1337&amp;tr=udp%3A%2F%2Ftracker.coppersurfer.tk%3A6969&amp;tr=udp%3A%2F%2Fexodus.desync.com%3A6969","seeders":1,"leechers":0,"uploader":"Raven1969","files":-1,"time":1413138576,"description":"The.Canal(2014)720p.WEB-DL.H264.AAC.Raven.\n\n\n\n\n\nEnglish subs included.\n\n\n\n\n\nRuntime:\n92 Mins\n\n\n\nScreen images:\n\n\n &lt;a href=&quot;\nhttp://i.imgur.com/PUBkXwd.png&quot; rel=&quot;nofollow&quot; target=&quot;_NEW&quot;&gt;\nhttp://i.imgur.com/PUBkXwd.png&lt;/a&gt;\n\n &lt;a href=&quot;\nhttp://i.imgur.com/wRvs7h6.png&quot; rel=&quot;nofollow&quot; target=&quot;_NEW&quot;&gt;\nhttp://i.imgur.com/wRvs7h6.png&lt;/a&gt;\n\n &lt;a href=&quot;\nhttp://i.imgur.com/BGb82A1.png&quot; rel=&quot;nofollow&quot; target=&quot;_NEW&quot;&gt;\nhttp://i.imgur.com/BGb82A1.png&lt;/a&gt;\n\n &lt;a href=&quot;\nhttp://i.imgur.com/iFfuYu6.png&quot; rel=&quot;nofollow&quot; target=&quot;_NEW&quot;&gt;\nhttp://i.imgur.com/iFfuYu6.png&lt;/a&gt;\n\n &lt;a href=&quot;\nhttp://i.imgur.com/0AJwO5j.png&quot; rel=&quot;nofollow&quot; target=&quot;_NEW&quot;&gt;\nhttp://i.imgur.com/0AJwO5j.png&lt;/a&gt;\n\n &lt;a href=&quot;\nhttp://i.imgur.com/MhZbKdk.png&quot; rel=&quot;nofollow&quot; target=&quot;_NEW&quot;&gt;\nhttp://i.imgur.com/MhZbKdk.png&lt;/a&gt;\n\n &lt;a href=&quot;\nhttp://i.imgur.com/psQbpxO.png&quot; rel=&quot;nofollow&quot; target=&quot;_NEW&quot;&gt;\nhttp://i.imgur.com/psQbpxO.png&lt;/a&gt;\n\n\n\n\nIMDB:\n\n\n\n &lt;a href=&quot;\nhttp://www.imdb.com/title/tt2517658&quot; rel=&quot;nofollow&quot; target=&quot;_NEW&quot;&gt;\nhttp://www.imdb.com/title/tt2517658&lt;/a&gt;\n\n\n\n\nIMDB Rating:  6.3\n\n\n\n\nStoryline:\n\nFilm archivist David (Rupert Evans) has been having a rough time lately, as he suspects that his wife Alice (Hannah Hoekstra) has been cheating on him with Alex (Carl Shaaban), one of her work clients. This stress is compounded when David's work partner Claire (Antonia Campbell-Hughes) gives him a reel of to-be-archived footage that shows that his house was the setting for a brutal murder in 1902. Becoming progressively more unsettled and unhinged, David begins to believe that a spectral presence is in his house and ends up following his wife to a nearby canal, where he discovers that she is indeed having an affair with Alex. When Alice goes missing shortly afterwards, David contacts the police- only to become the prime suspect in her disappearance. As the police grow more convinced that David has murdered his wife, he struggles to find proof of his growing suspicion that something otherworldly was instead responsible.\n\n\n\n\nGeneral \n\nFormat                                   : MPEG-4\nFormat profile                           : Base Media\nCodec ID                                 : isom\nFile size                                : 802 MiB\nDuration                                 : 1h 33mn\nOverall bit rate mode                    : Variable\nOverall bit rate                         : 1 197 Kbps\nEncoded date                             : UTC 2014-10-12 16:23:36\nTagged date                              : UTC 2014-10-12 16:23:36\nWriting application                      : My MP4Box GUI 0.6.0.6 &lt;http://my-mp4box-gui.zymichost.com&gt;\n\nVideo\n\nID                                       : 1\nFormat                                   : AVC\nFormat/Info                              : Advanced Video Codec\nFormat profile                           : &lt;a class=&quot;__cf_email__&quot; href=&quot;/cdn-cgi/l/email-protection&quot; data-cfemail=&quot;eaa2838d82aaa6dec4da&quot;&gt;[email&amp;#160;protected]&lt;/a&gt;&lt;script cf-hash='f9e31' type=&quot;text/javascript&quot;&gt;\n/* &lt;![CDATA[ */!function(){try{var t=&quot;currentScript&quot;in document?document.currentScript:function(){for(var t=document.getElementsByTagName(&quot;script&quot;),e=t.length;e--;)if(t[e].getAttribute(&quot;cf-hash&quot;))return t[e]}();if(t&amp;&amp;t.previousSibling){var e,r,n,i,c=t.previousSibling,a=c.getAttribute(&quot;data-cfemail&quot;);if(a){for(e=&quot;&quot;,r=parseInt(a.substr(0,2),16),n=2;a.length-n;n+=2)i=parseInt(a.substr(n,2),16)^r,e+=String.fromCharCode(i);e=document.createTextNode(e),c.parentNode.replaceChild(e,c)}}}catch(u){}}();/* ]]&gt; */&lt;/script&gt;\nFormat settings, CABAC                   : Yes\nFormat settings, ReFrames                : 8 frames\nCodec ID                                 : avc1\nCodec ID/Info                            : Advanced Video Coding\nDuration                                 : 1h 33mn\nBit rate                                 : 1 100 Kbps\nMaximum bit rate                         : 9 791 Kbps\nWidth                                    : 1 280 pixels\nHeight                                   : 544 pixels\nDisplay aspect ratio                     : 2.35:1\nFrame rate mode                          : Constant\nFrame rate                               : 23.976 fps\nColor space                              : YUV\nChroma subsampling                       : 4:2:0\nBit depth                                : 8 bits\nScan type                                : Progressive\nBits/(Pixel*Frame)                       : 0.066\nStream size                              : 736 MiB (92%)\nTitle                                    : The.Canal(2014)720p.WEB-DL.H264.AAC.Raven.mp4\nWriting library                          : x264 core 132 \nLanguage                                 : English\nEncoded date                             : UTC 2014-10-12 16:19:32\nTagged date                              : UTC 2014-10-12 16:23:41\n\nAudio\n\nID                                       : 2\nFormat                                   : AAC\nFormat/Info                              : Advanced Audio Codec\nFormat profile                           : LC\nCodec ID                                 : 40\nDuration                                 : 1h 33mn\nBit rate mode                            : Variable\nBit rate                                 : 93.4 Kbps\nMaximum bit rate                         : 103 Kbps\nChannel(s)                               : 2 channels\nChannel positions                        : Front: L R\nSampling rate                            : 48.0 KHz\nCompression mode                         : Lossy\nStream size                              : 62.6 MiB (8%)\nTitle                                    : Audio AAC LC 96kb.aac\nEncoded date                             : UTC 2014-10-12 16:23:38\nTagged date                              : UTC 2014-10-12 16:23:41\n\n\n\n\n\n\n\nPLEASE  SEED FOR AS LONG AS POSSIBLE TO KEEP THE TORRENT ALIVE :-)","torrent":{"xt":"urn:btih:346e2e219c3ed7292803a11284e670e8090bbbb9","amp;dn":"The.Canal%282014%29720p.WEB-DL.H264.AAC.Raven","amp;tr":["udp%3A%2F%2Ftracker.openbittorrent.com%3A80","udp%3A%2F%2Fopen.demonii.com%3A1337","udp%3A%2F%2Ftracker.coppersurfer.tk%3A6969","udp%3A%2F%2Fexodus.desync.com%3A6969"],"infoHash":"346e2e219c3ed7292803a11284e670e8090bbbb9","infoHashBuffer":{"type":"Buffer","data":[52,110,46,33,156,62,215,41,40,3,161,18,132,230,112,232,9,11,187,185]},"announce":[],"urlList":[]}}